<svg enable-background="new 0 0 25 24" viewBox="0 0 25 24"
    xmlns="http://www.w3.org/2000/svg">
    <path d="m24.6 5.8c-.3-.3-.7-.5-1.1-.6l-18.1-2v-.2c-.2-1.6-1.5-3-2.8-3h-2c-.4 0-.6.2-.6.5s.2.5.5.5h2c.8 0 1.6 1 1.8 2.1l.8 8.1c.1 1.5-.2 3-.8 4.4-.4.6-.4 1.3 0 1.9.5.6 1.3 1 2.1.9h16.5c.3 0 .5-.2.5-.5s-.2-.5-.5-.5h-16.6c-.4.1-.9-.1-1.1-.4-.1-.3-.1-.6.1-.9.3-.5.5-1.1.7-1.7h16c.9 0 1.6-.6 1.8-1.4l1.1-6c.1-.4 0-.8-.3-1.2zm-1.8 7c-.1.3-.4.6-.7.6h-16c.1-.7.2-1.5.1-2.2l-.7-6.9 17.9 2c.1 0 .2.1.3.2s.1.2.1.3zm-3 11.2c-1.3 0-2.3-1-2.3-2.3s1-2.3 2.3-2.3 2.3 1 2.3 2.3c.1 1.3-1 2.3-2.3 2.3zm0-3.6c-.5 0-.9.2-1.1.6s-.2.9 0 1.3.7.6 1.1.6c.7 0 1.3-.6 1.3-1.3 0-.6-.5-1.2-1.3-1.2zm-12 3.6c-1.3 0-2.3-1-2.3-2.3s1-2.3 2.3-2.3 2.3 1 2.3 2.3c.1 1.3-1 2.3-2.3 2.3zm0-3.6c-.5 0-.9.2-1.1.6s-.2.9 0 1.3c.3.4.7.7 1.1.7.7 0 1.3-.6 1.3-1.3s-.5-1.3-1.3-1.3z" fill="#58585a"></path>
</svg>