<?xml version="1.0" encoding="UTF-8"?>
<svg class="icon-module__cart-081 masthead-site-nav-module__cartIcon-0e3" alt="cart icon" aria-labelledby="cartIcon" description="Cart" name="cart" role="img" viewBox="0 0 25 25" xmlns="http://www.w3.org/2000/svg">
<title>Cart</title>
<path d="m24.6 5.9c-0.3-0.3-0.7-0.6-1.1-0.6l-18.1-2v-0.2c-0.2-1.7-1.5-3.1-2.8-3.1h-2c-0.4 0-0.6 0.2-0.6 0.5s0.2 0.5 0.5 0.5h2c0.8 0 1.6 1 1.8 2.1l0.8 8.2c0.1 1.5-0.2 3-0.8 4.4-0.4 0.6-0.4 1.3 0 1.9 0.5 0.7 1.3 1 2.1 0.9h16.5c0.3 0 0.5-0.2 0.5-0.5s-0.2-0.5-0.5-0.5h-16.6c-0.4 0.1-0.9-0.1-1.1-0.4-0.1-0.3-0.1-0.6 0.1-0.9 0.3-0.5 0.5-1.1 0.7-1.7h16c0.9 0 1.6-0.6 1.8-1.4l1.1-6c0.1-0.4 0-0.9-0.3-1.2zm-1.8 7c-0.1 0.3-0.4 0.6-0.7 0.6h-16c0.1-0.7 0.2-1.5 0.1-2.2l-0.7-7 17.9 2c0.1 0 0.2 0.1 0.3 0.2s0.1 0.2 0.1 0.3l-1 6.1zm-3 11.3c-1.3 0-2.3-1-2.3-2.3s1-2.3 2.3-2.3 2.3 1 2.3 2.3-1 2.3-2.3 2.3zm0-3.6c-0.5 0-0.9 0.2-1.1 0.6s-0.2 0.9 0 1.3 0.7 0.6 1.1 0.6c0.7 0 1.3-0.6 1.3-1.3s-0.5-1.2-1.3-1.2zm-12 3.6c-1.3 0-2.3-1-2.3-2.3s1-2.3 2.3-2.3 2.3 1 2.3 2.3-1 2.3-2.3 2.3zm0-3.6c-0.5 0-0.9 0.2-1.1 0.6s-0.2 0.9 0 1.3 0.7 0.6 1.1 0.6c0.7 0 1.3-0.6 1.3-1.3s-0.5-1.2-1.3-1.2z"/>
</svg>
