<?xml version="1.0" encoding="UTF-8"?>
<svg class="icon-module__saatvaLogo-d22 masthead-site-nav-module__saatvaLogo-ac8" alt="Saatva Logo" aria-labelledby="saatvaLogo" description="Saatva Logo" name="saatvaLogo" role="img" viewBox="0 0 180 38.3" xmlns="http://www.w3.org/2000/svg">
<title>Saatva Logo</title>
<path d="m59.8 37.5h-4.9v-4.8c-2.4 3.5-6.4 5.6-10.7 5.6-8.5 0-15.4-7-15.4-16.2 0-9.3 7-16.3 15.5-16.3 8.8 0 15.5 7.1 15.5 16.3v15.4zm-15.4-27c-5.8 0-10.4 5.1-10.4 11.6s4.7 11.5 10.4 11.5 10.4-5.1 10.4-11.5-4.8-11.6-10.4-11.6z"/>
<path d="m96.3 37.5h-4.9v-4.8c-2.4 3.5-6.4 5.6-10.7 5.6-8.5 0-15.4-7-15.4-16.2 0-9.3 7-16.3 15.5-16.3 8.8 0 15.5 7.1 15.5 16.3v15.4zm-15.5-27c-5.8 0-10.4 5.1-10.4 11.6s4.7 11.5 10.4 11.5 10.4-5.1 10.4-11.5c0.1-6.4-4.7-11.6-10.4-11.6z"/>
<path d="M115,37.5c-7.2,0.8-12.2-3.4-12.2-11.3V0h5v6.6h7v4.9h-7v14.8c0,5.5,3.3,6.8,7.1,6.6V37.5z"/>
<path d="M119.2,6.6h5.4l8.5,24.1h0.1l8.5-24.1h5.4l-11.2,30.9h-5.5L119.2,6.6z"/>
<path d="m180 37.5h-4.9v-4.8c-2.4 3.5-6.4 5.6-10.7 5.6-8.5 0-15.4-7-15.4-16.2 0-9.3 7-16.3 15.5-16.3 8.8 0 15.5 7.1 15.5 16.3v15.4zm-15.5-27c-5.8 0-10.4 5.1-10.4 11.6s4.7 11.5 10.4 11.5 10.4-5.1 10.4-11.5c0.1-6.4-4.7-11.6-10.4-11.6z"/>
<path d="M0,33.2c3.6,3.2,8.2,5,13,4.9c6.8,0,11.2-3.7,11.2-9.3v-0.1c0-4.8-2.8-7.4-10-9.1c-6-1.4-7.6-2.5-7.6-5.1v-0.1c0-2.3,2.2-3.9,5.3-3.9c3.1,0.1,6.1,1.2,8.5,3.2l2.8-4C20,7.2,16,5.8,11.9,5.9c-6.3,0-10.7,3.7-10.7,9V15c0,5.7,3.7,7.7,10.4,9.3c5.5,1.3,7.2,2.4,7.2,5v0.1c0,2.5-2.3,4.1-5.7,4.1c-3.6,0-6.7-1.3-10-4.1L0,33.2z"/>
</svg>
